<svg xmlns="http://www.w3.org/2000/svg" viewBox="0 0 1200 800" role="img" aria-labelledby="title desc">
  <title id="title">Early birds</title>
  <desc id="desc">An atmospheric reconstruction plate of early Cretaceous birds flying over water and conifer forest.</desc>
  <defs>
    <linearGradient id="bg" x1="0" x2="1" y1="0" y2="1">
      <stop offset="0" stop-color="#193233"/>
      <stop offset=".56" stop-color="#4e654b"/>
      <stop offset="1" stop-color="#101411"/>
    </linearGradient>
    <radialGradient id="light" cx=".4" cy=".18" r=".58">
      <stop offset="0" stop-color="#e9cf91" stop-opacity=".74"/>
      <stop offset="1" stop-color="#e9cf91" stop-opacity="0"/>
    </radialGradient>
    <filter id="grain">
      <feTurbulence type="fractalNoise" baseFrequency=".72" numOctaves="4"/>
      <feComponentTransfer><feFuncA type="table" tableValues="0 .14"/></feComponentTransfer>
    </filter>
  </defs>
  <rect width="1200" height="800" fill="url(#bg)"/>
  <rect width="1200" height="800" fill="url(#light)"/>
  <path d="M0 588c130-78 220-88 330-52 116 38 210 56 340 14 150-48 292-67 530 10v240H0z" fill="#111711"/>
  <g fill="#152013" opacity=".82">
    <path d="M86 598l66-210 66 210z"/>
    <path d="M146 612l74-260 78 260z"/>
    <path d="M940 604l72-234 74 234z"/>
    <path d="M1024 626l84-270 78 270z"/>
  </g>
  <g transform="translate(290 230)" fill="#13110d">
    <path d="M210 96c-94-74-164-86-210-36 78 3 142 34 194 94z"/>
    <path d="M286 102c108-70 194-68 260 8-90-8-168 18-235 78z"/>
    <ellipse cx="254" cy="154" rx="60" ry="24"/>
    <circle cx="184" cy="140" r="21"/>
    <path d="M164 128c-38-23-72-27-102-11 28 8 51 22 70 42z"/>
    <path d="M306 162c55 16 102 42 142 78-54 1-103-14-146-46z"/>
    <circle cx="178" cy="134" r="4" fill="#f3d58d"/>
  </g>
  <g transform="translate(660 314) scale(.62)" fill="#17120d" opacity=".95">
    <path d="M210 96c-94-74-164-86-210-36 78 3 142 34 194 94z"/>
    <path d="M286 102c108-70 194-68 260 8-90-8-168 18-235 78z"/>
    <ellipse cx="254" cy="154" rx="60" ry="24"/>
    <circle cx="184" cy="140" r="21"/>
    <path d="M164 128c-38-23-72-27-102-11 28 8 51 22 70 42z"/>
  </g>
  <path d="M0 690c188-42 342-40 462 6 162 62 376 51 738-34v138H0z" fill="#0c1110" opacity=".92"/>
  <rect width="1200" height="800" filter="url(#grain)" opacity=".45"/>
</svg>
